<!-- Sigla EP: Archivo 900 wdth 62 outlined, on-red on the cover bill red. Source of favicon.ico and apple-touch-icon.png. -->
<svg xmlns="http://www.w3.org/2000/svg" viewBox="0 0 1000 1000"><rect width="1000" height="1000" fill="#e2401c"/><path transform="translate(18 844)" fill="#fff6ef" d="M40 0V-688H435V-530H223V-428H399V-270H223V-158H440V0Z"/><path transform="translate(462 844)" fill="#fff6ef" d="M40 0V-688H301Q366 -688 405.5 -659.5Q445 -631 462.5 -579.0Q480 -527 480 -457Q480 -385 461.0 -330.5Q442 -276 402.0 -245.0Q362 -214 298 -214H223V0ZM223 -363H260Q282 -363 289.0 -388.5Q296 -414 296 -451Q296 -476 293.5 -495.5Q291 -515 283.0 -526.0Q275 -537 260 -537H223Z"/></svg>
